<?xml version="1.0" encoding="utf-8"?>
<COLLADA xmlns="http://www.collada.org/2005/11/COLLADASchema" version="1.4.1" xmlns:xsi="http://www.w3.org/2001/XMLSchema-instance">
  <asset>
    <contributor>
      <author>Blender User</author>
      <authoring_tool>Blender 4.0.2 commit date:2023-12-05, commit time:07:41, hash:9be62e85b727</authoring_tool>
    </contributor>
    <created>2026-04-06T22:12:43</created>
    <modified>2026-04-06T22:12:43</modified>
    <unit name="meter" meter="1"/>
    <up_axis>Z_UP</up_axis>
  </asset>
  <library_effects/>
  <library_images/>
  <library_geometries>
    <geometry id="Cube_001-mesh" name="Cube.001">
      <mesh>
        <source id="Cube_001-mesh-positions">
          <float_array id="Cube_001-mesh-positions-array" count="210">-1 0 -4.174327 -1 0 1.037156 -1 6.387249 -4.174327 -1 6.387249 1.037156 1 0 -4.148904 1 0 1.037156 1 6.387249 -4.137171 1 6.387249 1.037156 -1 0 -3.403398 -1 6.387249 -3.403398 1 6.387249 -3.371738 1 0 -3.381736 -1 4.727325 -4.174327 -1 4.727325 1.037156 1 4.727325 -4.139797 1 4.727325 1.037156 1 4.727325 -3.373976 -1 4.727325 -3.403398 34.51383 6.387249 -3.371738 34.51383 6.387249 -4.137171 34.51383 4.727325 -4.139797 34.51383 4.727325 -3.373976 36.63103 6.324391 -3.371738 36.63103 6.324391 -4.137171 36.63103 4.790184 -4.139797 36.63103 4.790184 -3.373976 36.63103 6.324391 -3.371738 36.63103 6.324391 -4.137171 36.63103 4.790184 -4.139797 36.63103 4.790184 -3.373976 38.72273 6.133088 -3.371738 38.72273 6.133088 -4.137171 38.72273 4.981487 -4.139797 38.72273 4.981487 -3.373976 40.72939 5.827911 -3.371738 40.72939 5.827911 -4.137171 40.72939 5.286663 -4.139797 40.72939 5.286663 -3.373976 -1 -6.387249 -4.174327 -1 -6.387249 1.037156 1 -6.387249 -4.137171 1 -6.387249 1.037156 -1 -6.387249 -3.403398 1 -6.387249 -3.371738 -1 -4.727325 -4.174327 -1 -4.727325 1.037156 1 -4.727325 -4.139797 1 -4.727325 1.037156 1 -4.727325 -3.373976 -1 -4.727325 -3.403398 34.51383 -6.387249 -3.371738 34.51383 -6.387249 -4.137171 34.51383 -4.727325 -4.139797 34.51383 -4.727325 -3.373976 36.63103 -6.324391 -3.371738 36.63103 -6.324391 -4.137171 36.63103 -4.790184 -4.139797 36.63103 -4.790184 -3.373976 36.63103 -6.324391 -3.371738 36.63103 -6.324391 -4.137171 36.63103 -4.790184 -4.139797 36.63103 -4.790184 -3.373976 38.72273 -6.133088 -3.371738 38.72273 -6.133088 -4.137171 38.72273 -4.981487 -4.139797 38.72273 -4.981487 -3.373976 40.72939 -5.827911 -3.371738 40.72939 -5.827911 -4.137171 40.72939 -5.286663 -4.139797 40.72939 -5.286663 -3.373976</float_array>
          <technique_common>
            <accessor source="#Cube_001-mesh-positions-array" count="70" stride="3">
              <param name="X" type="float"/>
              <param name="Y" type="float"/>
              <param name="Z" type="float"/>
            </accessor>
          </technique_common>
        </source>
        <source id="Cube_001-mesh-normals">
          <float_array id="Cube_001-mesh-normals-array" count="189">-1 0 0 0 1 0 1 0 0 0.01271075 0 -0.9999193 0 0 1 0 -0.001348257 0.9999991 0.01726227 0 -0.9998511 -3.98902e-5 -0.001348257 0.9999991 0 -1 0 0 0.001582205 -0.9999988 0.02967637 0.9995597 0 0.02967637 -0.9995597 0 -4.68438e-5 0.001582205 -0.9999988 -1.33359e-4 -0.001458704 0.9999989 0.1503524 -0.9886325 0 0.09107863 0.9958437 0 0.09107857 -0.9958437 0 -1.56464e-4 0.001711845 -0.9999986 -7.38007e-4 0.004852473 -0.999988 -2.95588e-4 -0.001943349 0.9999982 0.1503531 0.9886324 0 0.01726156 -0.001926183 -0.9998493 0 0.001348257 0.9999991 0.01857471 -0.001581966 -0.9998263 -3.98902e-5 0.001348257 0.9999991 0 -0.001582205 -0.9999988 0.02967637 -0.9995597 0 0.02967637 0.9995597 0 -4.69456e-5 -0.001582205 -0.9999988 -1.33433e-4 0.001458704 0.9999989 0.1503524 0.9886325 0 0.09107863 -0.9958437 0 0.09107857 0.9958437 0 -1.56316e-4 -0.001711845 -0.9999986 1 1.36678e-6 0 3.46658e-4 -0.002280652 -0.9999974 -2.95692e-4 0.001943349 0.9999982 0.1503531 -0.9886324 0 0.01726156 0.001926183 -0.9998493 0.01857471 0.001581966 -0.9998263 4.31589e-5 -0.001458704 0.999999 0.02967631 0.9995596 0 5.07924e-5 0.001711845 -0.9999986 1.77567e-4 -0.001943409 0.9999981 0.1503524 -0.9886326 0 0.09107816 0.9958438 0 0.09107822 -0.9958438 0 2.08646e-4 0.002280652 -0.9999974 1 -1.36678e-6 0 3.46658e-4 0.002280652 -0.9999974 6.28911e-4 -0.004134893 0.9999913 0.1503519 0.9886326 0 4.31589e-5 0.001458704 0.999999 0.02967631 -0.9995596 0 5.06823e-5 -0.001711845 -0.9999986 1.77616e-4 0.001943409 0.9999981 0.1503524 0.9886326 0 0.09107816 -0.9958438 0 0.09107822 0.9958438 0 2.08695e-4 -0.002280652 -0.9999974 -7.38007e-4 -0.004852473 -0.999988 6.28911e-4 0.004134893 0.9999913 0.1503519 -0.9886326 0</float_array>
          <technique_common>
            <accessor source="#Cube_001-mesh-normals-array" count="63" stride="3">
              <param name="X" type="float"/>
              <param name="Y" type="float"/>
              <param name="Z" type="float"/>
            </accessor>
          </technique_common>
        </source>
        <source id="Cube_001-mesh-map-0">
          <float_array id="Cube_001-mesh-map-0-array" count="816">0.625 0.2323276 0.4119822 0.25 0.4119822 0.2323276 0.625 0.25 0.4119822 0.5 0.4119822 0.25 0.4119822 0.5176723 0.625 0.5789474 0.4119822 0.5789473 0.125 0.5176723 0.375 0.5789473 0.125 0.5789474 0.875 0.5176723 0.625 0.5789474 0.625 0.5176723 0.375 0.5176723 0.4119822 0.5789473 0.375 0.5789473 0.4119822 0.25 0.375 0.5 0.375 0.25 0.4119822 0.2323276 0.375 0.25 0.375 0.2323276 0.4119822 0.1710526 0.375 0.2323276 0.375 0.1710526 0.4119822 0.5176723 0.4119822 0.5 0.4119822 0.5 0.875 0.5 0.625 0.5176723 0.625 0.5 0.125 0.5 0.375 0.5176723 0.125 0.5176723 0.4119822 0.5 0.625 0.5176723 0.4119822 0.5176723 0.625 0.1710526 0.4119822 0.2323276 0.4119822 0.1710526 0.4119822 0.5176723 0.4119822 0.5 0.4119822 0.5 0.4119822 0.5 0.375 0.5 0.375 0.5 0.375 0.5176723 0.4119822 0.5176723 0.4119822 0.5176723 0.375 0.5 0.375 0.5176723 0.375 0.5176723 0.375 0.5176723 0.4119822 0.5176723 0.4119822 0.5176723 0.4119822 0.5 0.375 0.5 0.375 0.5 0.375 0.5176723 0.4119822 0.5176723 0.4119822 0.5176723 0.375 0.5 0.375 0.5176723 0.375 0.5176723 0.4119822 0.5176723 0.4119822 0.5 0.4119822 0.5 0.375 0.5 0.375 0.5176723 0.375 0.5176723 0.4119822 0.5176723 0.4119822 0.5 0.4119822 0.5 0.4119822 0.5 0.375 0.5 0.375 0.5 0.375 0.5176723 0.4119822 0.5176723 0.4119822 0.5176723 0.4119822 0.5 0.375 0.5 0.375 0.5 0.375 0.5176723 0.4119822 0.5176723 0.4119822 0.5176723 0.375 0.5 0.375 0.5176723 0.375 0.5176723 0.375 0.5 0.4119822 0.5176723 0.375 0.5176723 0.375 0.5176723 0.375 0.5 0.375 0.5176723 0.4119822 0.5176723 0.4119822 0.5 0.4119822 0.5 0.4119822 0.5 0.375 0.5 0.375 0.5 0.4119822 0.25 0.625 0.2323276 0.4119822 0.2323276 0.4119822 0.5 0.625 0.25 0.4119822 0.25 0.4119822 0.5176723 0.625 0.5789474 0.625 0.5176723 0.125 0.5176723 0.375 0.5789473 0.375 0.5176723 0.625 0.5789474 0.875 0.5176723 0.625 0.5176723 0.375 0.5176723 0.4119822 0.5789473 0.4119822 0.5176723 0.375 0.5 0.4119822 0.25 0.375 0.25 0.375 0.25 0.4119822 0.2323276 0.375 0.2323276 0.375 0.2323276 0.4119822 0.1710526 0.375 0.1710526 0.4119822 0.5 0.4119822 0.5176723 0.4119822 0.5 0.625 0.5176723 0.875 0.5 0.625 0.5 0.125 0.5 0.375 0.5176723 0.375 0.5 0.4119822 0.5 0.625 0.5176723 0.625 0.5 0.4119822 0.2323276 0.625 0.1710526 0.4119822 0.1710526 0.4119822 0.5 0.4119822 0.5176723 0.4119822 0.5 0.375 0.5 0.4119822 0.5 0.375 0.5 0.4119822 0.5176723 0.375 0.5176723 0.4119822 0.5176723 0.375 0.5176723 0.375 0.5 0.375 0.5176723 0.4119822 0.5176723 0.375 0.5176723 0.4119822 0.5176723 0.375 0.5 0.4119822 0.5 0.375 0.5 0.4119822 0.5176723 0.375 0.5176723 0.4119822 0.5176723 0.375 0.5176723 0.375 0.5 0.375 0.5176723 0.4119822 0.5 0.4119822 0.5176723 0.4119822 0.5 0.375 0.5176723 0.375 0.5 0.375 0.5176723 0.4119822 0.5 0.4119822 0.5176723 0.4119822 0.5 0.375 0.5 0.4119822 0.5 0.375 0.5 0.4119822 0.5176723 0.375 0.5176723 0.4119822 0.5176723 0.375 0.5 0.4119822 0.5 0.375 0.5 0.4119822 0.5176723 0.375 0.5176723 0.4119822 0.5176723 0.375 0.5176723 0.375 0.5 0.375 0.5176723 0.375 0.5 0.4119822 0.5176723 0.4119822 0.5 0.375 0.5176723 0.375 0.5 0.375 0.5 0.4119822 0.5 0.4119822 0.5176723 0.4119822 0.5 0.375 0.5 0.4119822 0.5 0.375 0.5 0.625 0.2323276 0.625 0.25 0.4119822 0.25 0.625 0.25 0.625 0.5 0.4119822 0.5 0.4119822 0.5176723 0.625 0.5176723 0.625 0.5789474 0.125 0.5176723 0.375 0.5176723 0.375 0.5789473 0.875 0.5176723 0.875 0.5789474 0.625 0.5789474 0.375 0.5176723 0.4119822 0.5176723 0.4119822 0.5789473 0.4119822 0.25 0.4119822 0.5 0.375 0.5 0.4119822 0.2323276 0.4119822 0.25 0.375 0.25 0.4119822 0.1710526 0.4119822 0.2323276 0.375 0.2323276 0.4119822 0.5176723 0.4119822 0.5176723 0.4119822 0.5 0.875 0.5 0.875 0.5176723 0.625 0.5176723 0.125 0.5 0.375 0.5 0.375 0.5176723 0.4119822 0.5 0.625 0.5 0.625 0.5176723 0.625 0.1710526 0.625 0.2323276 0.4119822 0.2323276 0.4119822 0.5176723 0.4119822 0.5176723 0.4119822 0.5 0.4119822 0.5 0.4119822 0.5 0.375 0.5 0.375 0.5176723 0.375 0.5176723 0.4119822 0.5176723 0.375 0.5 0.375 0.5 0.375 0.5176723 0.375 0.5176723 0.375 0.5176723 0.4119822 0.5176723 0.4119822 0.5 0.4119822 0.5 0.375 0.5 0.375 0.5176723 0.375 0.5176723 0.4119822 0.5176723 0.375 0.5 0.375 0.5 0.375 0.5176723 0.4119822 0.5176723 0.4119822 0.5176723 0.4119822 0.5 0.375 0.5 0.375 0.5 0.375 0.5176723 0.4119822 0.5176723 0.4119822 0.5176723 0.4119822 0.5 0.4119822 0.5 0.4119822 0.5 0.375 0.5 0.375 0.5176723 0.375 0.5176723 0.4119822 0.5176723 0.4119822 0.5 0.4119822 0.5 0.375 0.5 0.375 0.5176723 0.375 0.5176723 0.4119822 0.5176723 0.375 0.5 0.375 0.5 0.375 0.5176723 0.375 0.5 0.4119822 0.5 0.4119822 0.5176723 0.375 0.5176723 0.375 0.5 0.375 0.5 0.4119822 0.5176723 0.4119822 0.5176723 0.4119822 0.5 0.4119822 0.5 0.4119822 0.5 0.375 0.5 0.4119822 0.25 0.625 0.25 0.625 0.2323276 0.4119822 0.5 0.625 0.5 0.625 0.25 0.4119822 0.5176723 0.4119822 0.5789473 0.625 0.5789474 0.125 0.5176723 0.125 0.5789474 0.375 0.5789473 0.625 0.5789474 0.875 0.5789474 0.875 0.5176723 0.375 0.5176723 0.375 0.5789473 0.4119822 0.5789473 0.375 0.5 0.4119822 0.5 0.4119822 0.25 0.375 0.25 0.4119822 0.25 0.4119822 0.2323276 0.375 0.2323276 0.4119822 0.2323276 0.4119822 0.1710526 0.4119822 0.5 0.4119822 0.5176723 0.4119822 0.5176723 0.625 0.5176723 0.875 0.5176723 0.875 0.5 0.125 0.5 0.125 0.5176723 0.375 0.5176723 0.4119822 0.5 0.4119822 0.5176723 0.625 0.5176723 0.4119822 0.2323276 0.625 0.2323276 0.625 0.1710526 0.4119822 0.5 0.4119822 0.5176723 0.4119822 0.5176723 0.375 0.5 0.4119822 0.5 0.4119822 0.5 0.4119822 0.5176723 0.375 0.5176723 0.375 0.5176723 0.375 0.5176723 0.375 0.5 0.375 0.5 0.4119822 0.5176723 0.375 0.5176723 0.375 0.5176723 0.375 0.5 0.4119822 0.5 0.4119822 0.5 0.4119822 0.5176723 0.375 0.5176723 0.375 0.5176723 0.375 0.5176723 0.375 0.5 0.375 0.5 0.4119822 0.5 0.4119822 0.5176723 0.4119822 0.5176723 0.375 0.5176723 0.375 0.5 0.375 0.5 0.4119822 0.5 0.4119822 0.5176723 0.4119822 0.5176723 0.375 0.5 0.4119822 0.5 0.4119822 0.5 0.4119822 0.5176723 0.375 0.5176723 0.375 0.5176723 0.375 0.5 0.4119822 0.5 0.4119822 0.5 0.4119822 0.5176723 0.375 0.5176723 0.375 0.5176723 0.375 0.5176723 0.375 0.5 0.375 0.5 0.375 0.5 0.375 0.5176723 0.4119822 0.5176723 0.375 0.5176723 0.375 0.5176723 0.375 0.5 0.4119822 0.5 0.4119822 0.5176723 0.4119822 0.5176723 0.375 0.5 0.4119822 0.5 0.4119822 0.5</float_array>
          <technique_common>
            <accessor source="#Cube_001-mesh-map-0-array" count="408" stride="2">
              <param name="S" type="float"/>
              <param name="T" type="float"/>
            </accessor>
          </technique_common>
        </source>
        <vertices id="Cube_001-mesh-vertices">
          <input semantic="POSITION" source="#Cube_001-mesh-positions"/>
        </vertices>
        <triangles count="136">
          <input semantic="VERTEX" source="#Cube_001-mesh-vertices" offset="0"/>
          <input semantic="NORMAL" source="#Cube_001-mesh-normals" offset="1"/>
          <input semantic="TEXCOORD" source="#Cube_001-mesh-map-0" offset="2" set="0"/>
          <p>13 0 0 9 0 1 17 0 2 3 1 3 10 1 4 9 1 5 16 2 6 5 2 7 11 2 8 12 3 9 4 3 10 0 3 11 13 4 12 5 4 13 15 4 14 14 2 15 11 2 16 4 2 17 9 1 18 6 1 19 2 1 20 17 0 21 2 0 22 12 0 23 8 0 24 12 0 25 0 0 26 16 5 27 18 5 28 10 5 29 3 4 30 15 4 31 7 4 32 2 6 33 14 6 34 12 6 35 10 2 36 15 2 37 16 2 38 1 0 39 17 0 40 8 0 41 21 7 42 22 7 43 18 7 44 10 1 45 19 1 46 6 1 47 14 8 48 21 8 49 16 8 50 6 9 51 20 9 52 14 9 53 24 4 54 29 4 55 25 4 56 18 10 57 23 10 58 19 10 59 20 11 60 25 11 61 21 11 62 19 12 63 24 12 64 20 12 65 29 13 66 30 13 67 26 13 68 23 4 69 28 4 70 24 4 71 25 4 72 26 4 73 22 4 74 22 4 75 27 4 76 23 4 77 32 14 78 37 14 79 33 14 80 26 15 81 31 15 82 27 15 83 28 16 84 33 16 85 29 16 86 27 17 87 32 17 88 28 17 89 35 2 90 37 2 91 36 2 92 32 18 93 35 18 94 36 18 95 33 19 96 34 19 97 30 19 98 30 20 99 35 20 100 31 20 101 42 0 102 45 0 103 49 0 104 43 8 105 39 8 106 42 8 107 48 2 108 5 2 109 47 2 110 44 21 111 4 21 112 46 21 113 5 4 114 45 4 115 47 4 116 46 2 117 11 2 118 48 2 119 40 8 120 42 8 121 38 8 122 38 0 123 49 0 124 44 0 125 44 0 126 8 0 127 0 0 128 50 22 129 48 22 130 43 22 131 47 4 132 39 4 133 41 4 134 38 23 135 46 23 136 40 23 137 43 2 138 47 2 139 41 2 140 49 0 141 1 0 142 8 0 143 54 24 144 53 24 145 50 24 146 51 8 147 43 8 148 40 8 149 53 1 150 46 1 151 48 1 152 52 25 153 40 25 154 46 25 155 61 4 156 56 4 157 57 4 158 55 26 159 50 26 160 51 26 161 57 27 162 52 27 163 53 27 164 56 28 165 51 28 166 52 28 167 62 29 168 61 29 169 58 29 170 60 4 171 55 4 172 56 4 173 58 4 174 57 4 175 54 4 176 59 4 177 54 4 178 55 4 179 69 30 180 64 30 181 65 30 182 63 31 183 58 31 184 59 31 185 65 32 186 60 32 187 61 32 188 64 33 189 59 33 190 60 33 191 67 34 192 69 34 193 66 34 194 64 35 195 67 35 196 63 35 197 66 36 198 65 36 199 62 36 200 67 37 201 62 37 202 63 37 203 13 0 204 3 0 205 9 0 206 3 1 207 7 1 208 10 1 209 16 2 210 15 2 211 5 2 212 12 38 213 14 38 214 4 38 215 13 4 216 1 4 217 5 4 218 14 2 219 16 2 220 11 2 221 9 1 222 10 1 223 6 1 224 17 0 225 9 0 226 2 0 227 8 0 228 17 0 229 12 0 230 16 5 231 21 5 232 18 5 233 3 4 234 13 4 235 15 4 236 2 39 237 6 39 238 14 39 239 10 2 240 7 2 241 15 2 242 1 0 243 13 0 244 17 0 245 21 40 246 25 40 247 22 40 248 10 1 249 18 1 250 19 1 251 14 8 252 20 8 253 21 8 254 6 9 255 19 9 256 20 9 257 24 4 258 28 4 259 29 4 260 18 41 261 22 41 262 23 41 263 20 11 264 24 11 265 25 11 266 19 42 267 23 42 268 24 42 269 29 43 270 33 43 271 30 43 272 23 4 273 27 4 274 28 4 275 25 4 276 29 4 277 26 4 278 22 4 279 26 4 280 27 4 281 32 44 282 36 44 283 37 44 284 26 45 285 30 45 286 31 45 287 28 46 288 32 46 289 33 46 290 27 47 291 31 47 292 32 47 293 35 48 294 34 48 295 37 48 296 32 49 297 31 49 298 35 49 299 33 50 300 37 50 301 34 50 302 30 51 303 34 51 304 35 51 305 42 0 306 39 0 307 45 0 308 43 8 309 41 8 310 39 8 311 48 2 312 11 2 313 5 2 314 44 3 315 0 3 316 4 3 317 5 4 318 1 4 319 45 4 320 46 2 321 4 2 322 11 2 323 40 8 324 43 8 325 42 8 326 38 0 327 42 0 328 49 0 329 44 0 330 49 0 331 8 0 332 50 22 333 53 22 334 48 22 335 47 4 336 45 4 337 39 4 338 38 6 339 44 6 340 46 6 341 43 2 342 48 2 343 47 2 344 49 0 345 45 0 346 1 0 347 54 52 348 57 52 349 53 52 350 51 8 351 50 8 352 43 8 353 53 1 354 52 1 355 46 1 356 52 25 357 51 25 358 40 25 359 61 4 360 60 4 361 56 4 362 55 53 363 54 53 364 50 53 365 57 27 366 56 27 367 52 27 368 56 54 369 55 54 370 51 54 371 62 55 372 65 55 373 61 55 374 60 4 375 59 4 376 55 4 377 58 4 378 61 4 379 57 4 380 59 4 381 58 4 382 54 4 383 69 56 384 68 56 385 64 56 386 63 57 387 62 57 388 58 57 389 65 58 390 64 58 391 60 58 392 64 59 393 63 59 394 59 59 395 67 2 396 68 2 397 69 2 398 64 60 399 68 60 400 67 60 401 66 61 402 69 61 403 65 61 404 67 62 405 66 62 406 62 62 407</p>
        </triangles>
      </mesh>
    </geometry>
  </library_geometries>
  <library_visual_scenes>
    <visual_scene id="Scene" name="Scene">
      <node id="sidelink_resized" name="sidelink_resized" type="NODE">
        <matrix sid="transform">0.02013328 0 0 -0.01981534 0 0.04776853 0 -2.69164e-8 0 0 0.04776853 0.2003322 0 0 0 1</matrix>
        <instance_geometry url="#Cube_001-mesh" name="sidelink_resized"/>
      </node>
    </visual_scene>
  </library_visual_scenes>
  <scene>
    <instance_visual_scene url="#Scene"/>
  </scene>
</COLLADA>