<?xml version="1.0" encoding="utf-8"?>
<COLLADA xmlns="http://www.collada.org/2005/11/COLLADASchema" version="1.4.1" xmlns:xsi="http://www.w3.org/2001/XMLSchema-instance">
  <asset>
    <contributor>
      <author>Blender User</author>
      <authoring_tool>Blender 4.0.2 commit date:2023-12-05, commit time:07:41, hash:9be62e85b727</authoring_tool>
    </contributor>
    <created>2026-04-19T00:49:59</created>
    <modified>2026-04-19T00:49:59</modified>
    <unit name="meter" meter="1"/>
    <up_axis>Z_UP</up_axis>
  </asset>
  <library_cameras>
    <camera id="Camera-camera" name="Camera">
      <optics>
        <technique_common>
          <perspective>
            <xfov sid="xfov">39.59775</xfov>
            <aspect_ratio>1.777778</aspect_ratio>
            <znear sid="znear">0.1</znear>
            <zfar sid="zfar">100</zfar>
          </perspective>
        </technique_common>
      </optics>
      <extra>
        <technique profile="blender">
          <shiftx sid="shiftx" type="float">0</shiftx>
          <shifty sid="shifty" type="float">0</shifty>
          <dof_distance sid="dof_distance" type="float">10</dof_distance>
        </technique>
      </extra>
    </camera>
  </library_cameras>
  <library_lights>
    <light id="Light-light" name="Light">
      <technique_common>
        <point>
          <color sid="color">1000 1000 1000</color>
          <constant_attenuation>1</constant_attenuation>
          <linear_attenuation>0</linear_attenuation>
          <quadratic_attenuation>0</quadratic_attenuation>
        </point>
      </technique_common>
      <extra>
        <technique profile="blender">
          <type sid="type" type="int">0</type>
          <flag sid="flag" type="int">0</flag>
          <mode sid="mode" type="int">1</mode>
          <red sid="red" type="float">1</red>
          <green sid="green" type="float">1</green>
          <blue sid="blue" type="float">1</blue>
          <shadow_r sid="blender_shadow_r" type="float">0</shadow_r>
          <shadow_g sid="blender_shadow_g" type="float">0</shadow_g>
          <shadow_b sid="blender_shadow_b" type="float">0</shadow_b>
          <energy sid="blender_energy" type="float">1000</energy>
          <spotsize sid="spotsize" type="float">75</spotsize>
          <spotblend sid="spotblend" type="float">0.15</spotblend>
          <clipsta sid="clipsta" type="float">0.04999995</clipsta>
          <clipend sid="clipend" type="float">30.002</clipend>
          <bias sid="bias" type="float">1</bias>
          <radius sid="radius" type="float">0.1</radius>
          <area_shape sid="area_shape" type="int">1</area_shape>
          <area_size sid="area_size" type="float">0.1</area_size>
          <area_sizey sid="area_sizey" type="float">0.1</area_sizey>
          <area_sizez sid="area_sizez" type="float">1</area_sizez>
        </technique>
      </extra>
    </light>
  </library_lights>
  <library_effects>
    <effect id="Material-effect">
      <profile_COMMON>
        <technique sid="common">
          <lambert>
            <emission>
              <color sid="emission">0 0 0 1</color>
            </emission>
            <diffuse>
              <color sid="diffuse">0.07957751 0.07957751 0.07957751 1</color>
            </diffuse>
            <index_of_refraction>
              <float sid="ior">1.45</float>
            </index_of_refraction>
          </lambert>
        </technique>
      </profile_COMMON>
    </effect>
  </library_effects>
  <library_images/>
  <library_materials>
    <material id="Material-material" name="Material">
      <instance_effect url="#Material-effect"/>
    </material>
  </library_materials>
  <library_geometries>
    <geometry id="Cube_002-mesh" name="Cube.002">
      <mesh>
        <source id="Cube_002-mesh-positions">
          <float_array id="Cube_002-mesh-positions-array" count="210">-1 0 -4.174327 -1 0 1.037156 -1 6.387249 -4.174327 -1 6.387249 1.037156 1 0 -4.148904 1 0 1.037156 1 6.387249 -4.137171 1 6.387249 1.037156 -1 0 -3.403398 -1 6.387249 -3.403398 1 6.387249 -3.371738 1 0 -3.381736 -1 4.727325 -4.174327 -1 4.727325 1.037156 1 4.727325 -4.139797 1 4.727325 1.037156 1 4.727325 -3.373976 -1 4.727325 -3.403398 28.60049 6.387249 -3.371738 28.60049 6.387249 -4.137171 28.60049 4.727325 -4.139797 28.60049 4.727325 -3.373976 30.7177 6.324391 -3.371738 30.7177 6.324391 -4.137171 30.7177 4.790184 -4.139797 30.7177 4.790184 -3.373976 30.7177 6.324391 -3.371738 30.7177 6.324391 -4.137171 30.7177 4.790184 -4.139797 30.7177 4.790184 -3.373976 32.80939 6.133088 -3.371738 32.80939 6.133088 -4.137171 32.80939 4.981487 -4.139797 32.80939 4.981487 -3.373976 34.81605 5.827911 -3.371738 34.81605 5.827911 -4.137171 34.81605 5.286663 -4.139797 34.81605 5.286663 -3.373976 -1 -6.387249 -4.174327 -1 -6.387249 1.037156 1 -6.387249 -4.137171 1 -6.387249 1.037156 -1 -6.387249 -3.403398 1 -6.387249 -3.371738 -1 -4.727325 -4.174327 -1 -4.727325 1.037156 1 -4.727325 -4.139797 1 -4.727325 1.037156 1 -4.727325 -3.373976 -1 -4.727325 -3.403398 28.60049 -6.387249 -3.371738 28.60049 -6.387249 -4.137171 28.60049 -4.727325 -4.139797 28.60049 -4.727325 -3.373976 30.7177 -6.324391 -3.371738 30.7177 -6.324391 -4.137171 30.7177 -4.790184 -4.139797 30.7177 -4.790184 -3.373976 30.7177 -6.324391 -3.371738 30.7177 -6.324391 -4.137171 30.7177 -4.790184 -4.139797 30.7177 -4.790184 -3.373976 32.80939 -6.133088 -3.371738 32.80939 -6.133088 -4.137171 32.80939 -4.981487 -4.139797 32.80939 -4.981487 -3.373976 34.81605 -5.827911 -3.371738 34.81605 -5.827911 -4.137171 34.81605 -5.286663 -4.139797 34.81605 -5.286663 -3.373976</float_array>
          <technique_common>
            <accessor source="#Cube_002-mesh-positions-array" count="70" stride="3">
              <param name="X" type="float"/>
              <param name="Y" type="float"/>
              <param name="Z" type="float"/>
            </accessor>
          </technique_common>
        </source>
        <source id="Cube_002-mesh-normals">
          <float_array id="Cube_002-mesh-normals-array" count="204">-1 0 0 0 1 0 1 0 0 0.01271075 0 -0.9999193 0 0 1 0 -0.001348257 0.9999992 0.01726227 0 -0.9998511 -3.99918e-5 -0.001348257 0.9999991 0 -1 0 0 0.001582205 -0.9999988 0 0 0 0.02967602 0.9995596 0 0.02967643 -0.9995596 0 -4.7149e-5 0.001582205 -0.9999988 -1.3347e-4 -0.001458704 0.999999 0.1503527 -0.9886325 0 0.09107816 0.9958438 0 0.0910781 -0.9958438 0 -1.56725e-4 0.001711905 -0.9999986 -7.38012e-4 0.004852414 -0.999988 -2.95693e-4 -0.001943409 0.9999982 0.1503533 0.9886324 0 0.01726198 -0.001926064 -0.9998493 0 0.001348257 0.9999992 0.01857501 -0.001581966 -0.9998263 -3.98901e-5 0.001348257 0.9999991 0 -0.001582205 -0.9999988 0.02967602 -0.9995596 0 0.02967643 0.9995596 0 -4.72168e-5 -0.001582205 -0.9999988 -1.33433e-4 0.001458704 0.999999 0.1503527 0.9886325 0 0.09107816 -0.9958438 0 0.0910781 0.9958438 0 -1.56613e-4 -0.001711905 -0.9999986 1 -2.5897e-6 0 3.46763e-4 -0.002280652 -0.9999974 -2.95693e-4 0.001943409 0.9999982 0.1503533 -0.9886324 0 0.01726198 0.001926064 -0.9998493 0 -0.001348257 0.9999992 0.01857501 0.001581966 -0.9998263 4.31588e-5 -0.001458704 0.9999989 0 0.001582205 -0.9999988 0.02967649 -0.9995597 0 5.10859e-5 0.001711905 -0.9999986 1.77765e-4 -0.001943349 0.9999981 0.1503533 -0.9886323 0 0.09107834 0.9958437 0 0.0910784 -0.9958437 0 2.08646e-4 0.002280652 -0.9999974 1 2.5897e-6 0 3.46763e-4 0.002280652 -0.9999974 6.28915e-4 -0.004134893 0.9999914 0.1503538 0.9886323 0 0 0.001348257 0.9999992 4.32689e-5 0.001458704 0.9999989 0 -0.001582205 -0.9999988 0.02967649 0.9995597 0 5.10125e-5 -0.001711905 -0.9999986 1.77666e-4 0.001943349 0.9999981 0.1503533 0.9886323 0 0.09107834 -0.9958437 0 0.0910784 0.9958437 0 2.08794e-4 -0.002280652 -0.9999974 -7.38012e-4 -0.004852414 -0.999988 6.28915e-4 0.004134893 0.9999914 0.1503538 -0.9886323 0</float_array>
          <technique_common>
            <accessor source="#Cube_002-mesh-normals-array" count="68" stride="3">
              <param name="X" type="float"/>
              <param name="Y" type="float"/>
              <param name="Z" type="float"/>
            </accessor>
          </technique_common>
        </source>
        <source id="Cube_002-mesh-map-0">
          <float_array id="Cube_002-mesh-map-0-array" count="816">0.625 0.2323276 0.4119822 0.25 0.4119822 0.2323276 0.625 0.25 0.4119822 0.5 0.4119822 0.25 0.4119822 0.5176723 0.625 0.5789474 0.4119822 0.5789473 0.125 0.5176723 0.375 0.5789473 0.125 0.5789474 0.8750001 0.5176723 0.625 0.5789474 0.625 0.5176723 0.375 0.5176723 0.4119822 0.5789473 0.375 0.5789473 0.4119822 0.25 0.375 0.5 0.375 0.25 0.4119822 0.2323276 0.375 0.25 0.375 0.2323276 0.4119822 0.1710526 0.375 0.2323276 0.375 0.1710526 0.4119822 0.5176723 0.4119822 0.5 0.4119822 0.5 0.8750001 0.5 0.625 0.5176723 0.625 0.5 0.125 0.5 0.375 0.5176723 0.125 0.5176723 0.4119822 0.5 0.625 0.5176723 0.4119822 0.5176723 0.625 0.1710526 0.4119822 0.2323276 0.4119822 0.1710526 0.4119822 0.5176723 0.4119822 0.5 0.4119822 0.5 0.4119822 0.5 0.375 0.5 0.375 0.5 0.375 0.5176723 0.4119822 0.5176723 0.4119822 0.5176723 0.375 0.5 0.375 0.5176723 0.375 0.5176723 0.375 0.5176723 0.4119822 0.5176723 0.4119822 0.5176723 0.4119822 0.5 0.375 0.5 0.375 0.5 0.375 0.5176723 0.4119822 0.5176723 0.4119822 0.5176723 0.375 0.5 0.375 0.5176723 0.375 0.5176723 0.4119822 0.5176723 0.4119822 0.5 0.4119822 0.5 0.375 0.5 0.375 0.5176723 0.375 0.5176723 0.4119822 0.5176723 0.4119822 0.5 0.4119822 0.5 0.4119822 0.5 0.375 0.5 0.375 0.5 0.375 0.5176723 0.4119822 0.5176723 0.4119822 0.5176723 0.4119822 0.5 0.375 0.5 0.375 0.5 0.375 0.5176723 0.4119822 0.5176723 0.4119822 0.5176723 0.375 0.5 0.375 0.5176723 0.375 0.5176723 0.375 0.5 0.4119822 0.5176723 0.375 0.5176723 0.375 0.5176723 0.375 0.5 0.375 0.5176723 0.4119822 0.5176723 0.4119822 0.5 0.4119822 0.5 0.4119822 0.5 0.375 0.5 0.375 0.5 0.4119822 0.25 0.625 0.2323276 0.4119822 0.2323276 0.4119822 0.5 0.625 0.25 0.4119822 0.25 0.4119822 0.5176723 0.625 0.5789474 0.625 0.5176723 0.125 0.5176723 0.375 0.5789473 0.375 0.5176723 0.625 0.5789474 0.8750001 0.5176723 0.625 0.5176723 0.375 0.5176723 0.4119822 0.5789473 0.4119822 0.5176723 0.375 0.5 0.4119822 0.25 0.375 0.25 0.375 0.25 0.4119822 0.2323276 0.375 0.2323276 0.375 0.2323276 0.4119822 0.1710526 0.375 0.1710526 0.4119822 0.5 0.4119822 0.5176723 0.4119822 0.5 0.625 0.5176723 0.8750001 0.5 0.625 0.5 0.125 0.5 0.375 0.5176723 0.375 0.5 0.4119822 0.5 0.625 0.5176723 0.625 0.5 0.4119822 0.2323276 0.625 0.1710526 0.4119822 0.1710526 0.4119822 0.5 0.4119822 0.5176723 0.4119822 0.5 0.375 0.5 0.4119822 0.5 0.375 0.5 0.4119822 0.5176723 0.375 0.5176723 0.4119822 0.5176723 0.375 0.5176723 0.375 0.5 0.375 0.5176723 0.4119822 0.5176723 0.375 0.5176723 0.4119822 0.5176723 0.375 0.5 0.4119822 0.5 0.375 0.5 0.4119822 0.5176723 0.375 0.5176723 0.4119822 0.5176723 0.375 0.5176723 0.375 0.5 0.375 0.5176723 0.4119822 0.5 0.4119822 0.5176723 0.4119822 0.5 0.375 0.5176723 0.375 0.5 0.375 0.5176723 0.4119822 0.5 0.4119822 0.5176723 0.4119822 0.5 0.375 0.5 0.4119822 0.5 0.375 0.5 0.4119822 0.5176723 0.375 0.5176723 0.4119822 0.5176723 0.375 0.5 0.4119822 0.5 0.375 0.5 0.4119822 0.5176723 0.375 0.5176723 0.4119822 0.5176723 0.375 0.5176723 0.375 0.5 0.375 0.5176723 0.375 0.5 0.4119822 0.5176723 0.4119822 0.5 0.375 0.5176723 0.375 0.5 0.375 0.5 0.4119822 0.5 0.4119822 0.5176723 0.4119822 0.5 0.375 0.5 0.4119822 0.5 0.375 0.5 0.625 0.2323276 0.625 0.25 0.4119822 0.25 0.625 0.25 0.625 0.5 0.4119822 0.5 0.4119822 0.5176723 0.625 0.5176723 0.625 0.5789474 0.125 0.5176723 0.375 0.5176723 0.375 0.5789473 0.8750001 0.5176723 0.8750001 0.5789474 0.625 0.5789474 0.375 0.5176723 0.4119822 0.5176723 0.4119822 0.5789473 0.4119822 0.25 0.4119822 0.5 0.375 0.5 0.4119822 0.2323276 0.4119822 0.25 0.375 0.25 0.4119822 0.1710526 0.4119822 0.2323276 0.375 0.2323276 0.4119822 0.5176723 0.4119822 0.5176723 0.4119822 0.5 0.8750001 0.5 0.8750001 0.5176723 0.625 0.5176723 0.125 0.5 0.375 0.5 0.375 0.5176723 0.4119822 0.5 0.625 0.5 0.625 0.5176723 0.625 0.1710526 0.625 0.2323276 0.4119822 0.2323276 0.4119822 0.5176723 0.4119822 0.5176723 0.4119822 0.5 0.4119822 0.5 0.4119822 0.5 0.375 0.5 0.375 0.5176723 0.375 0.5176723 0.4119822 0.5176723 0.375 0.5 0.375 0.5 0.375 0.5176723 0.375 0.5176723 0.375 0.5176723 0.4119822 0.5176723 0.4119822 0.5 0.4119822 0.5 0.375 0.5 0.375 0.5176723 0.375 0.5176723 0.4119822 0.5176723 0.375 0.5 0.375 0.5 0.375 0.5176723 0.4119822 0.5176723 0.4119822 0.5176723 0.4119822 0.5 0.375 0.5 0.375 0.5 0.375 0.5176723 0.4119822 0.5176723 0.4119822 0.5176723 0.4119822 0.5 0.4119822 0.5 0.4119822 0.5 0.375 0.5 0.375 0.5176723 0.375 0.5176723 0.4119822 0.5176723 0.4119822 0.5 0.4119822 0.5 0.375 0.5 0.375 0.5176723 0.375 0.5176723 0.4119822 0.5176723 0.375 0.5 0.375 0.5 0.375 0.5176723 0.375 0.5 0.4119822 0.5 0.4119822 0.5176723 0.375 0.5176723 0.375 0.5 0.375 0.5 0.4119822 0.5176723 0.4119822 0.5176723 0.4119822 0.5 0.4119822 0.5 0.4119822 0.5 0.375 0.5 0.4119822 0.25 0.625 0.25 0.625 0.2323276 0.4119822 0.5 0.625 0.5 0.625 0.25 0.4119822 0.5176723 0.4119822 0.5789473 0.625 0.5789474 0.125 0.5176723 0.125 0.5789474 0.375 0.5789473 0.625 0.5789474 0.8750001 0.5789474 0.8750001 0.5176723 0.375 0.5176723 0.375 0.5789473 0.4119822 0.5789473 0.375 0.5 0.4119822 0.5 0.4119822 0.25 0.375 0.25 0.4119822 0.25 0.4119822 0.2323276 0.375 0.2323276 0.4119822 0.2323276 0.4119822 0.1710526 0.4119822 0.5 0.4119822 0.5176723 0.4119822 0.5176723 0.625 0.5176723 0.8750001 0.5176723 0.8750001 0.5 0.125 0.5 0.125 0.5176723 0.375 0.5176723 0.4119822 0.5 0.4119822 0.5176723 0.625 0.5176723 0.4119822 0.2323276 0.625 0.2323276 0.625 0.1710526 0.4119822 0.5 0.4119822 0.5176723 0.4119822 0.5176723 0.375 0.5 0.4119822 0.5 0.4119822 0.5 0.4119822 0.5176723 0.375 0.5176723 0.375 0.5176723 0.375 0.5176723 0.375 0.5 0.375 0.5 0.4119822 0.5176723 0.375 0.5176723 0.375 0.5176723 0.375 0.5 0.4119822 0.5 0.4119822 0.5 0.4119822 0.5176723 0.375 0.5176723 0.375 0.5176723 0.375 0.5176723 0.375 0.5 0.375 0.5 0.4119822 0.5 0.4119822 0.5176723 0.4119822 0.5176723 0.375 0.5176723 0.375 0.5 0.375 0.5 0.4119822 0.5 0.4119822 0.5176723 0.4119822 0.5176723 0.375 0.5 0.4119822 0.5 0.4119822 0.5 0.4119822 0.5176723 0.375 0.5176723 0.375 0.5176723 0.375 0.5 0.4119822 0.5 0.4119822 0.5 0.4119822 0.5176723 0.375 0.5176723 0.375 0.5176723 0.375 0.5176723 0.375 0.5 0.375 0.5 0.375 0.5 0.375 0.5176723 0.4119822 0.5176723 0.375 0.5176723 0.375 0.5176723 0.375 0.5 0.4119822 0.5 0.4119822 0.5176723 0.4119822 0.5176723 0.375 0.5 0.4119822 0.5 0.4119822 0.5</float_array>
          <technique_common>
            <accessor source="#Cube_002-mesh-map-0-array" count="408" stride="2">
              <param name="S" type="float"/>
              <param name="T" type="float"/>
            </accessor>
          </technique_common>
        </source>
        <vertices id="Cube_002-mesh-vertices">
          <input semantic="POSITION" source="#Cube_002-mesh-positions"/>
        </vertices>
        <triangles material="Material-material" count="136">
          <input semantic="VERTEX" source="#Cube_002-mesh-vertices" offset="0"/>
          <input semantic="NORMAL" source="#Cube_002-mesh-normals" offset="1"/>
          <input semantic="TEXCOORD" source="#Cube_002-mesh-map-0" offset="2" set="0"/>
          <p>13 0 0 9 0 1 17 0 2 3 1 3 10 1 4 9 1 5 16 2 6 5 2 7 11 2 8 12 3 9 4 3 10 0 3 11 13 4 12 5 4 13 15 4 14 14 2 15 11 2 16 4 2 17 9 1 18 6 1 19 2 1 20 17 0 21 2 0 22 12 0 23 8 0 24 12 0 25 0 0 26 16 5 27 18 5 28 10 5 29 3 4 30 15 4 31 7 4 32 2 6 33 14 6 34 12 6 35 10 2 36 15 2 37 16 2 38 1 0 39 17 0 40 8 0 41 21 7 42 22 7 43 18 7 44 10 1 45 19 1 46 6 1 47 14 8 48 21 8 49 16 8 50 6 9 51 20 9 52 14 9 53 24 10 54 29 10 55 25 10 56 18 11 57 23 11 58 19 11 59 20 12 60 25 12 61 21 12 62 19 13 63 24 13 64 20 13 65 29 14 66 30 14 67 26 14 68 23 4 69 28 4 70 24 4 71 25 4 72 26 4 73 22 4 74 22 10 75 27 10 76 23 10 77 32 15 78 37 15 79 33 15 80 26 16 81 31 16 82 27 16 83 28 17 84 33 17 85 29 17 86 27 18 87 32 18 88 28 18 89 35 2 90 37 2 91 36 2 92 32 19 93 35 19 94 36 19 95 33 20 96 34 20 97 30 20 98 30 21 99 35 21 100 31 21 101 42 0 102 45 0 103 49 0 104 43 8 105 39 8 106 42 8 107 48 2 108 5 2 109 47 2 110 44 22 111 4 22 112 46 22 113 5 4 114 45 4 115 47 4 116 46 2 117 11 2 118 48 2 119 40 8 120 42 8 121 38 8 122 38 0 123 49 0 124 44 0 125 44 0 126 8 0 127 0 0 128 50 23 129 48 23 130 43 23 131 47 4 132 39 4 133 41 4 134 38 24 135 46 24 136 40 24 137 43 2 138 47 2 139 41 2 140 49 0 141 1 0 142 8 0 143 54 25 144 53 25 145 50 25 146 51 8 147 43 8 148 40 8 149 53 1 150 46 1 151 48 1 152 52 26 153 40 26 154 46 26 155 61 10 156 56 10 157 57 10 158 55 27 159 50 27 160 51 27 161 57 28 162 52 28 163 53 28 164 56 29 165 51 29 166 52 29 167 62 30 168 61 30 169 58 30 170 60 4 171 55 4 172 56 4 173 58 4 174 57 4 175 54 4 176 59 10 177 54 10 178 55 10 179 69 31 180 64 31 181 65 31 182 63 32 183 58 32 184 59 32 185 65 33 186 60 33 187 61 33 188 64 34 189 59 34 190 60 34 191 67 35 192 69 35 193 66 35 194 64 36 195 67 36 196 63 36 197 66 37 198 65 37 199 62 37 200 67 38 201 62 38 202 63 38 203 13 0 204 3 0 205 9 0 206 3 1 207 7 1 208 10 1 209 16 2 210 15 2 211 5 2 212 12 39 213 14 39 214 4 39 215 13 4 216 1 4 217 5 4 218 14 2 219 16 2 220 11 2 221 9 1 222 10 1 223 6 1 224 17 0 225 9 0 226 2 0 227 8 0 228 17 0 229 12 0 230 16 40 231 21 40 232 18 40 233 3 4 234 13 4 235 15 4 236 2 41 237 6 41 238 14 41 239 10 2 240 7 2 241 15 2 242 1 0 243 13 0 244 17 0 245 21 42 246 25 42 247 22 42 248 10 1 249 18 1 250 19 1 251 14 8 252 20 8 253 21 8 254 6 43 255 19 43 256 20 43 257 24 10 258 28 10 259 29 10 260 18 11 261 22 11 262 23 11 263 20 44 264 24 44 265 25 44 266 19 45 267 23 45 268 24 45 269 29 46 270 33 46 271 30 46 272 23 4 273 27 4 274 28 4 275 25 4 276 29 4 277 26 4 278 22 10 279 26 10 280 27 10 281 32 47 282 36 47 283 37 47 284 26 48 285 30 48 286 31 48 287 28 49 288 32 49 289 33 49 290 27 50 291 31 50 292 32 50 293 35 51 294 34 51 295 37 51 296 32 52 297 31 52 298 35 52 299 33 53 300 37 53 301 34 53 302 30 54 303 34 54 304 35 54 305 42 0 306 39 0 307 45 0 308 43 8 309 41 8 310 39 8 311 48 2 312 11 2 313 5 2 314 44 3 315 0 3 316 4 3 317 5 4 318 1 4 319 45 4 320 46 2 321 4 2 322 11 2 323 40 8 324 43 8 325 42 8 326 38 0 327 42 0 328 49 0 329 44 0 330 49 0 331 8 0 332 50 55 333 53 55 334 48 55 335 47 4 336 45 4 337 39 4 338 38 6 339 44 6 340 46 6 341 43 2 342 48 2 343 47 2 344 49 0 345 45 0 346 1 0 347 54 56 348 57 56 349 53 56 350 51 8 351 50 8 352 43 8 353 53 1 354 52 1 355 46 1 356 52 57 357 51 57 358 40 57 359 61 10 360 60 10 361 56 10 362 55 27 363 54 27 364 50 27 365 57 58 366 56 58 367 52 58 368 56 59 369 55 59 370 51 59 371 62 60 372 65 60 373 61 60 374 60 4 375 59 4 376 55 4 377 58 4 378 61 4 379 57 4 380 59 10 381 58 10 382 54 10 383 69 61 384 68 61 385 64 61 386 63 62 387 62 62 388 58 62 389 65 63 390 64 63 391 60 63 392 64 64 393 63 64 394 59 64 395 67 2 396 68 2 397 69 2 398 64 65 399 68 65 400 67 65 401 66 66 402 69 66 403 65 66 404 67 67 405 66 67 406 62 67 407</p>
        </triangles>
      </mesh>
    </geometry>
  </library_geometries>
  <library_visual_scenes>
    <visual_scene id="Scene" name="Scene">
      <node id="sidelink_resized_001" name="sidelink_resized.001" type="NODE">
        <matrix sid="transform">0.02013328 0 0 -0.01981534 0 0.04776853 0 -2.69164e-8 0 0 0.04776853 0.2003322 0 0 0 1</matrix>
        <instance_geometry url="#Cube_002-mesh" name="sidelink_resized.001">
          <bind_material>
            <technique_common>
              <instance_material symbol="Material-material" target="#Material-material">
                <bind_vertex_input semantic="Cube_001-mesh-map-0" input_semantic="TEXCOORD" input_set="0"/>
              </instance_material>
            </technique_common>
          </bind_material>
        </instance_geometry>
      </node>
      <node id="Camera" name="Camera" type="NODE">
        <matrix sid="transform">0.6859207 -0.3240135 0.6515582 7.358891 0.7276763 0.3054208 -0.6141704 -6.925791 0 0.8953956 0.4452714 4.958309 0 0 0 1</matrix>
        <instance_camera url="#Camera-camera"/>
      </node>
      <node id="Light" name="Light" type="NODE">
        <matrix sid="transform">-0.2908646 -0.7711008 0.5663932 4.076245 0.9551712 -0.1998834 0.2183912 1.005454 -0.05518906 0.6045247 0.7946723 5.903862 0 0 0 1</matrix>
        <instance_light url="#Light-light"/>
      </node>
    </visual_scene>
  </library_visual_scenes>
  <scene>
    <instance_visual_scene url="#Scene"/>
  </scene>
</COLLADA>