<?xml version="1.0" encoding="utf-8"?>
<COLLADA xmlns="http://www.collada.org/2005/11/COLLADASchema" version="1.4.1" xmlns:xsi="http://www.w3.org/2001/XMLSchema-instance">
  <asset>
    <contributor>
      <author>Blender User</author>
      <authoring_tool>Blender 4.0.2 commit date:2023-12-05, commit time:07:41, hash:9be62e85b727</authoring_tool>
    </contributor>
    <created>2026-03-21T21:18:37</created>
    <modified>2026-03-21T21:18:37</modified>
    <unit name="meter" meter="1"/>
    <up_axis>Z_UP</up_axis>
  </asset>
  <library_cameras>
    <camera id="Camera_002-camera" name="Camera.002">
      <optics>
        <technique_common>
          <perspective>
            <xfov sid="xfov">39.59775</xfov>
            <aspect_ratio>1.777778</aspect_ratio>
            <znear sid="znear">0.1</znear>
            <zfar sid="zfar">100</zfar>
          </perspective>
        </technique_common>
      </optics>
      <extra>
        <technique profile="blender">
          <shiftx sid="shiftx" type="float">0</shiftx>
          <shifty sid="shifty" type="float">0</shifty>
          <dof_distance sid="dof_distance" type="float">10</dof_distance>
        </technique>
      </extra>
    </camera>
    <camera id="Camera_001-camera" name="Camera.001">
      <optics>
        <technique_common>
          <perspective>
            <xfov sid="xfov">39.59775</xfov>
            <aspect_ratio>1.777778</aspect_ratio>
            <znear sid="znear">0.1</znear>
            <zfar sid="zfar">100</zfar>
          </perspective>
        </technique_common>
      </optics>
      <extra>
        <technique profile="blender">
          <shiftx sid="shiftx" type="float">0</shiftx>
          <shifty sid="shifty" type="float">0</shifty>
          <dof_distance sid="dof_distance" type="float">10</dof_distance>
        </technique>
      </extra>
    </camera>
    <camera id="Camera-camera" name="Camera">
      <optics>
        <technique_common>
          <perspective>
            <xfov sid="xfov">39.59775</xfov>
            <aspect_ratio>1.777778</aspect_ratio>
            <znear sid="znear">0.1</znear>
            <zfar sid="zfar">100</zfar>
          </perspective>
        </technique_common>
      </optics>
      <extra>
        <technique profile="blender">
          <shiftx sid="shiftx" type="float">0</shiftx>
          <shifty sid="shifty" type="float">0</shifty>
          <dof_distance sid="dof_distance" type="float">10</dof_distance>
        </technique>
      </extra>
    </camera>
  </library_cameras>
  <library_lights>
    <light id="Light_002-light" name="Light.002">
      <technique_common>
        <point>
          <color sid="color">1000 1000 1000</color>
          <constant_attenuation>1</constant_attenuation>
          <linear_attenuation>0</linear_attenuation>
          <quadratic_attenuation>0</quadratic_attenuation>
        </point>
      </technique_common>
      <extra>
        <technique profile="blender">
          <type sid="type" type="int">0</type>
          <flag sid="flag" type="int">0</flag>
          <mode sid="mode" type="int">1</mode>
          <red sid="red" type="float">1</red>
          <green sid="green" type="float">1</green>
          <blue sid="blue" type="float">1</blue>
          <shadow_r sid="blender_shadow_r" type="float">0</shadow_r>
          <shadow_g sid="blender_shadow_g" type="float">0</shadow_g>
          <shadow_b sid="blender_shadow_b" type="float">0</shadow_b>
          <energy sid="blender_energy" type="float">1000</energy>
          <spotsize sid="spotsize" type="float">75</spotsize>
          <spotblend sid="spotblend" type="float">0.15</spotblend>
          <clipsta sid="clipsta" type="float">0.04999995</clipsta>
          <clipend sid="clipend" type="float">30.002</clipend>
          <bias sid="bias" type="float">1</bias>
          <radius sid="radius" type="float">0</radius>
          <area_shape sid="area_shape" type="int">1</area_shape>
          <area_size sid="area_size" type="float">0.1</area_size>
          <area_sizey sid="area_sizey" type="float">0.1</area_sizey>
          <area_sizez sid="area_sizez" type="float">1</area_sizez>
        </technique>
      </extra>
    </light>
    <light id="Light_001-light" name="Light.001">
      <technique_common>
        <point>
          <color sid="color">1000 1000 1000</color>
          <constant_attenuation>1</constant_attenuation>
          <linear_attenuation>0</linear_attenuation>
          <quadratic_attenuation>0</quadratic_attenuation>
        </point>
      </technique_common>
      <extra>
        <technique profile="blender">
          <type sid="type" type="int">0</type>
          <flag sid="flag" type="int">0</flag>
          <mode sid="mode" type="int">1</mode>
          <red sid="red" type="float">1</red>
          <green sid="green" type="float">1</green>
          <blue sid="blue" type="float">1</blue>
          <shadow_r sid="blender_shadow_r" type="float">0</shadow_r>
          <shadow_g sid="blender_shadow_g" type="float">0</shadow_g>
          <shadow_b sid="blender_shadow_b" type="float">0</shadow_b>
          <energy sid="blender_energy" type="float">1000</energy>
          <spotsize sid="spotsize" type="float">75</spotsize>
          <spotblend sid="spotblend" type="float">0.15</spotblend>
          <clipsta sid="clipsta" type="float">0.04999995</clipsta>
          <clipend sid="clipend" type="float">30.002</clipend>
          <bias sid="bias" type="float">1</bias>
          <radius sid="radius" type="float">0</radius>
          <area_shape sid="area_shape" type="int">1</area_shape>
          <area_size sid="area_size" type="float">0.1</area_size>
          <area_sizey sid="area_sizey" type="float">0.1</area_sizey>
          <area_sizez sid="area_sizez" type="float">1</area_sizez>
        </technique>
      </extra>
    </light>
    <light id="Light-light" name="Light">
      <technique_common>
        <point>
          <color sid="color">1000 1000 1000</color>
          <constant_attenuation>1</constant_attenuation>
          <linear_attenuation>0</linear_attenuation>
          <quadratic_attenuation>0</quadratic_attenuation>
        </point>
      </technique_common>
      <extra>
        <technique profile="blender">
          <type sid="type" type="int">0</type>
          <flag sid="flag" type="int">0</flag>
          <mode sid="mode" type="int">1</mode>
          <red sid="red" type="float">1</red>
          <green sid="green" type="float">1</green>
          <blue sid="blue" type="float">1</blue>
          <shadow_r sid="blender_shadow_r" type="float">0</shadow_r>
          <shadow_g sid="blender_shadow_g" type="float">0</shadow_g>
          <shadow_b sid="blender_shadow_b" type="float">0</shadow_b>
          <energy sid="blender_energy" type="float">1000</energy>
          <spotsize sid="spotsize" type="float">75</spotsize>
          <spotblend sid="spotblend" type="float">0.15</spotblend>
          <clipsta sid="clipsta" type="float">0.04999995</clipsta>
          <clipend sid="clipend" type="float">30.002</clipend>
          <bias sid="bias" type="float">1</bias>
          <radius sid="radius" type="float">0.1</radius>
          <area_shape sid="area_shape" type="int">1</area_shape>
          <area_size sid="area_size" type="float">0.1</area_size>
          <area_sizey sid="area_sizey" type="float">0.1</area_sizey>
          <area_sizez sid="area_sizez" type="float">1</area_sizez>
        </technique>
      </extra>
    </light>
  </library_lights>
  <library_effects>
    <effect id="ID9-effect">
      <profile_COMMON>
        <technique sid="common">
          <lambert>
            <emission>
              <color sid="emission">0 0 0 1</color>
            </emission>
            <diffuse>
              <color sid="diffuse">0.364706 0.447059 0.52549 1</color>
            </diffuse>
            <index_of_refraction>
              <float sid="ior">1.45</float>
            </index_of_refraction>
          </lambert>
        </technique>
      </profile_COMMON>
    </effect>
  </library_effects>
  <library_images/>
  <library_materials>
    <material id="ID9-material" name="ID9">
      <instance_effect url="#ID9-effect"/>
    </material>
  </library_materials>
  <library_geometries>
    <geometry id="ID3-mesh" name="ID3">
      <mesh>
        <source id="ID3-mesh-positions">
          <float_array id="ID3-mesh-positions-array" count="318">0.675 -0.3526336 0.03999996 0.759704 -0.3407576 0.03999996 0.8 -0.3261276 0.03999996 0 -0.2726336 0.03999996 0 -0.3517935 0.03999996 0.8 -0.2991395 0.03999996 0.717766 -0.3496505 0.03999996 0.675 -0.2726336 0.03999996 0.717766 -0.2756166 0.03999996 0.759704 -0.2845096 0.03999996 -0.03999996 -0.3517935 0.25 -0.03999996 -0.3517935 0 0 -0.3517935 0 0 -0.3517935 0.25 0 -0.3517935 0 0 -0.2726336 0 0.675 -0.3517935 0 0.675 -0.3517935 0.03999996 0.759704 -0.3407576 0.03999996 0.717766 -0.3496505 0.03999996 0.759704 -0.3407576 0 0.8 -0.3261276 0 0.8 -0.3261276 0.03999996 0.717766 -0.3496505 0 0.675 -0.3526336 0.03999996 0.675 -0.3526336 0 0.8 -0.3261276 0 0.8 -0.2991395 0 0.8 -0.2991395 0.03999996 0.8 -0.3261276 0.03999996 0.717766 -0.2756166 0.03999996 0.759704 -0.2845096 0.03999996 0.717766 -0.2756166 0 0.675 -0.2726336 0 0.675 -0.2726336 0.03999996 0.759704 -0.2845096 0 0.8 -0.2991395 0.03999996 0.8 -0.2991395 0 0.675 -0.2726336 0.03999996 0.675 -0.2726336 0 0.8 -0.2991395 0 0.8 -0.3261276 0 0.759704 -0.2845096 0 0.675 -0.3526336 0 0.675 -0.2726336 0 0.717766 -0.3496505 0 0.717766 -0.2756166 0 0.759704 -0.3407576 0 -0.03999996 0 0.25 0 0 0.08281099 -0.03999996 0 0 -0.03999996 0 0.1236689 0 0 0.25 -0.00882554 0 0 0 0 0.03999996 0 0 0.0192095 -0.02021294 0 0.25 0 0 0 0.675 0.3526336 0.03999996 0.759704 0.3407576 0.03999996 0.8 0.3261276 0.03999996 0 0.2726336 0.03999996 0 0.3517935 0.03999996 0.8 0.2991395 0.03999996 0.717766 0.3496505 0.03999996 0.675 0.2726336 0.03999996 0.717766 0.2756166 0.03999996 0.759704 0.2845096 0.03999996 -0.03999996 0.3517935 0.25 -0.03999996 0.3517935 0 0 0.3517935 0 0 0.3517935 0.25 0 0.3517935 0 0 0.2726336 0 0.675 0.3517935 0 0.675 0.3517935 0.03999996 0.759704 0.3407576 0.03999996 0.717766 0.3496505 0.03999996 0.759704 0.3407576 0 0.8 0.3261276 0 0.8 0.3261276 0.03999996 0.717766 0.3496505 0 0.675 0.3526336 0.03999996 0.675 0.3526336 0 0.8 0.3261276 0 0.8 0.2991395 0 0.8 0.2991395 0.03999996 0.8 0.3261276 0.03999996 0.717766 0.2756166 0.03999996 0.759704 0.2845096 0.03999996 0.717766 0.2756166 0 0.675 0.2726336 0 0.675 0.2726336 0.03999996 0.759704 0.2845096 0 0.8 0.2991395 0.03999996 0.8 0.2991395 0 0.675 0.2726336 0.03999996 0.675 0.2726336 0 0.8 0.2991395 0 0.8 0.3261276 0 0.759704 0.2845096 0 0.675 0.3526336 0 0.675 0.2726336 0 0.717766 0.3496505 0 0.717766 0.2756166 0 0.759704 0.3407576 0</float_array>
          <technique_common>
            <accessor source="#ID3-mesh-positions-array" count="106" stride="3">
              <param name="X" type="float"/>
              <param name="Y" type="float"/>
              <param name="Z" type="float"/>
            </accessor>
          </technique_common>
        </source>
        <source id="ID3-mesh-normals">
          <float_array id="ID3-mesh-normals-array" count="132">0 0 1 -1.53046e-7 0 1 0 -1 0 0 0 0 1 0 0 0.2750186 -0.961439 0 0.1388475 -0.9903138 0 0.2750186 -0.9614389 0 0.3412674 -0.9399663 0 0.3412674 -0.9399663 0 0.1388476 -0.9903138 0 0.0695855 -0.9975761 0 0.06958556 -0.997576 0 0.1388473 0.9903138 0 0.2750188 0.9614389 0 0.1388471 0.9903139 0 0.06958204 0.9975763 0 0.0695821 0.9975763 0 0.2750186 0.9614389 0 0.3412649 0.9399672 0 0.3412649 0.9399672 0 0 1 0 0 0 -1 -1 0 0 -1 0 0 0.2750186 0.961439 0 0.2750187 0.9614389 0 0.1388475 0.9903138 0 0.3412674 0.9399663 0 0.3412674 0.9399663 0 0.1388476 0.9903138 0 0.0695855 0.9975761 0 0.06958556 0.997576 0 0.1388473 -0.9903138 0 0.1388471 -0.9903138 0 0.2750188 -0.9614389 0 0.06958204 -0.9975763 0 0.0695821 -0.9975763 0 0.2750186 -0.9614389 0 0.3412649 -0.9399672 0 0.3412649 -0.9399672 0 -1 0 0 -1 0 0 -1 0 0</float_array>
          <technique_common>
            <accessor source="#ID3-mesh-normals-array" count="44" stride="3">
              <param name="X" type="float"/>
              <param name="Y" type="float"/>
              <param name="Z" type="float"/>
            </accessor>
          </technique_common>
        </source>
        <vertices id="ID3-mesh-vertices">
          <input semantic="POSITION" source="#ID3-mesh-positions"/>
        </vertices>
        <triangles material="ID9-material" count="112">
          <input semantic="VERTEX" source="#ID3-mesh-vertices" offset="0"/>
          <input semantic="NORMAL" source="#ID3-mesh-normals" offset="1"/>
          <p>0 0 1 0 2 0 3 0 4 0 2 0 4 0 0 0 2 0 5 0 3 0 2 0 0 0 6 0 1 0 5 0 7 0 3 0 8 0 7 0 9 0 7 1 5 1 9 1 12 2 13 2 10 2 10 2 11 2 12 2 4 3 12 3 14 3 3 4 13 4 4 4 3 4 49 4 13 4 4 3 13 3 12 3 3 4 55 4 54 4 14 2 16 2 17 2 14 2 17 2 4 2 18 5 19 6 20 7 21 8 22 9 18 5 18 5 20 7 21 8 20 7 19 6 23 10 19 6 24 11 23 10 23 10 24 11 25 12 26 4 27 4 28 4 26 4 28 4 29 4 30 13 31 14 32 15 33 16 34 17 30 13 30 13 32 15 33 16 32 15 31 14 35 18 31 14 36 19 35 18 35 18 36 19 37 20 38 21 15 21 3 21 38 21 39 21 15 21 40 22 41 22 42 22 11 22 15 22 14 22 43 22 44 22 45 22 15 22 50 22 53 22 11 0 14 0 12 0 46 22 42 22 47 22 41 22 47 22 42 22 45 22 46 22 47 22 46 22 45 22 44 22 44 22 43 22 15 22 15 22 53 22 57 22 43 22 14 22 15 22 13 0 52 0 56 0 56 0 10 0 13 0 48 23 51 23 10 23 49 4 52 4 13 4 51 24 11 24 10 24 55 4 15 4 57 4 58 0 60 0 59 0 61 0 60 0 62 0 62 0 60 0 58 0 63 0 60 0 61 0 58 0 59 0 64 0 63 0 61 0 65 0 66 0 67 0 65 0 65 1 67 1 63 1 70 21 68 21 71 21 68 21 70 21 69 21 62 3 72 3 70 3 61 4 62 4 71 4 61 4 49 4 54 4 62 3 70 3 71 3 61 4 54 4 55 4 72 21 75 21 74 21 72 21 62 21 75 21 76 25 78 26 77 27 79 28 76 25 80 29 76 25 79 28 78 26 78 26 81 30 77 27 77 27 81 30 82 31 81 30 83 32 82 31 84 4 86 4 85 4 84 4 87 4 86 4 88 33 90 34 89 35 91 36 88 33 92 37 88 33 91 36 90 34 90 34 93 38 89 35 89 35 93 38 94 39 93 38 95 40 94 39 96 2 61 2 73 2 96 2 73 2 97 2 98 22 100 22 99 22 69 22 72 22 73 22 101 22 103 22 102 22 73 22 50 22 69 22 69 0 70 0 72 0 104 22 105 22 100 22 99 22 100 22 105 22 103 22 105 22 104 22 104 22 102 22 103 22 102 22 73 22 101 22 73 22 57 22 53 22 101 22 73 22 72 22 71 0 56 0 52 0 68 0 56 0 71 0 48 41 68 41 51 41 49 4 71 4 52 4 51 42 69 42 50 42 73 4 55 4 57 4 3 4 54 4 49 4 15 22 11 22 50 22 56 0 48 0 10 0 51 43 50 43 11 43 55 4 3 4 15 4 61 4 71 4 49 4 73 22 53 22 50 22 68 0 48 0 56 0 51 24 68 24 69 24 73 4 61 4 55 4</p>
        </triangles>
      </mesh>
    </geometry>
  </library_geometries>
  <library_visual_scenes>
    <visual_scene id="Scene" name="Scene">
      <node id="Light_002" name="Light.002" type="NODE">
        <matrix sid="transform">-0.2908646 -0.7711008 0.5663933 4.076245 0.9551712 -0.1998833 0.2183913 1.005454 -0.05518912 0.6045247 0.7946723 5.903862 0 0 0 1</matrix>
        <instance_light url="#Light_002-light"/>
      </node>
      <node id="Camera_002" name="Camera.002" type="NODE">
        <matrix sid="transform">0.6859207 -0.3240135 0.6515582 7.358891 0.7276763 0.3054209 -0.6141704 -6.925791 -4.01133e-9 0.8953956 0.4452714 4.958309 0 0 0 1</matrix>
        <instance_camera url="#Camera_002-camera"/>
      </node>
      <node id="Light_001" name="Light.001" type="NODE">
        <matrix sid="transform">-0.2908646 -0.7711008 0.5663933 4.076245 0.9551712 -0.1998833 0.2183913 1.005454 -0.05518912 0.6045247 0.7946723 5.903862 0 0 0 1</matrix>
        <instance_light url="#Light_001-light"/>
      </node>
      <node id="Camera_001" name="Camera.001" type="NODE">
        <matrix sid="transform">0.6859207 -0.3240135 0.6515582 7.358891 0.7276763 0.3054209 -0.6141704 -6.925791 -4.01133e-9 0.8953956 0.4452714 4.958309 0 0 0 1</matrix>
        <instance_camera url="#Camera_001-camera"/>
      </node>
      <node id="ID2" name="ID2" type="NODE">
        <matrix sid="transform">1 0 0 0 0 1 0 0 0 0 1 0 0 0 0 1</matrix>
        <instance_geometry url="#ID3-mesh" name="ID2">
          <bind_material>
            <technique_common>
              <instance_material symbol="ID9-material" target="#ID9-material"/>
            </technique_common>
          </bind_material>
        </instance_geometry>
      </node>
      <node id="Camera" name="Camera" type="NODE">
        <matrix sid="transform">0.6859207 -0.3240135 0.6515582 7.358891 0.7276763 0.3054208 -0.6141704 -6.925791 0 0.8953956 0.4452714 4.958309 0 0 0 1</matrix>
        <instance_camera url="#Camera-camera"/>
      </node>
      <node id="Light" name="Light" type="NODE">
        <matrix sid="transform">-0.2908646 -0.7711008 0.5663932 4.076245 0.9551712 -0.1998834 0.2183912 1.005454 -0.05518906 0.6045247 0.7946723 5.903862 0 0 0 1</matrix>
        <instance_light url="#Light-light"/>
      </node>
    </visual_scene>
  </library_visual_scenes>
  <scene>
    <instance_visual_scene url="#Scene"/>
  </scene>
</COLLADA>